<mxfile host="app.diagrams.net" modified="2022-02-20T19:38:18.255Z" agent="5.0 (Windows NT 10.0; Win64; x64) AppleWebKit/537.36 (KHTML, like Gecko) Chrome/97.0.4692.99 Safari/537.36" etag="KBR3_TxZyP_sQj9HUVWx" version="16.6.1" type="github">
  <diagram id="Cms6EjygUgyA7g1mrg-D" name="Page-1">
    <mxGraphModel dx="903" dy="476" grid="1" gridSize="10" guides="1" tooltips="1" connect="1" arrows="1" fold="1" page="1" pageScale="1" pageWidth="827" pageHeight="1169" math="0" shadow="0">
      <root>
        <mxCell id="0" />
        <mxCell id="1" parent="0" />
        <mxCell id="k3N5Iyne3RUF0BrDFC_t-7" value="LCD I2C" style="rounded=1;whiteSpace=wrap;html=1;fontFamily=Times New Roman;fontSize=19;fillColor=#66B2FF;fontColor=#000000;labelBackgroundColor=none;" vertex="1" parent="1">
          <mxGeometry x="190" y="290" width="280" height="150" as="geometry" />
        </mxCell>
        <mxCell id="k3N5Iyne3RUF0BrDFC_t-39" style="edgeStyle=orthogonalEdgeStyle;rounded=0;orthogonalLoop=1;jettySize=auto;html=1;exitX=1;exitY=0.5;exitDx=0;exitDy=0;entryX=0.632;entryY=1;entryDx=0;entryDy=0;entryPerimeter=0;fontFamily=Times New Roman;fontSize=25;fontColor=#FFFFFF;" edge="1" parent="1" source="k3N5Iyne3RUF0BrDFC_t-8" target="k3N5Iyne3RUF0BrDFC_t-9">
          <mxGeometry relative="1" as="geometry" />
        </mxCell>
        <mxCell id="k3N5Iyne3RUF0BrDFC_t-41" style="edgeStyle=orthogonalEdgeStyle;rounded=0;orthogonalLoop=1;jettySize=auto;html=1;exitX=0.75;exitY=1;exitDx=0;exitDy=0;entryX=0.003;entryY=0.6;entryDx=0;entryDy=0;entryPerimeter=0;fontFamily=Times New Roman;fontSize=25;fontColor=#FFFFFF;" edge="1" parent="1" source="k3N5Iyne3RUF0BrDFC_t-8" target="k3N5Iyne3RUF0BrDFC_t-24">
          <mxGeometry relative="1" as="geometry" />
        </mxCell>
        <mxCell id="k3N5Iyne3RUF0BrDFC_t-42" style="edgeStyle=orthogonalEdgeStyle;rounded=0;orthogonalLoop=1;jettySize=auto;html=1;exitX=0.5;exitY=1;exitDx=0;exitDy=0;entryX=0.211;entryY=-0.008;entryDx=0;entryDy=0;entryPerimeter=0;fontFamily=Times New Roman;fontSize=25;fontColor=#FFFFFF;" edge="1" parent="1" source="k3N5Iyne3RUF0BrDFC_t-8" target="k3N5Iyne3RUF0BrDFC_t-7">
          <mxGeometry relative="1" as="geometry" />
        </mxCell>
        <mxCell id="k3N5Iyne3RUF0BrDFC_t-43" style="edgeStyle=orthogonalEdgeStyle;rounded=0;orthogonalLoop=1;jettySize=auto;html=1;exitX=0.25;exitY=0;exitDx=0;exitDy=0;entryX=1;entryY=0.583;entryDx=0;entryDy=0;entryPerimeter=0;fontFamily=Times New Roman;fontSize=25;fontColor=#FFFFFF;" edge="1" parent="1" source="k3N5Iyne3RUF0BrDFC_t-8" target="k3N5Iyne3RUF0BrDFC_t-34">
          <mxGeometry relative="1" as="geometry" />
        </mxCell>
        <mxCell id="k3N5Iyne3RUF0BrDFC_t-44" style="edgeStyle=orthogonalEdgeStyle;rounded=0;orthogonalLoop=1;jettySize=auto;html=1;exitX=0;exitY=0.5;exitDx=0;exitDy=0;fontFamily=Times New Roman;fontSize=25;fontColor=#FFFFFF;" edge="1" parent="1" source="k3N5Iyne3RUF0BrDFC_t-8" target="k3N5Iyne3RUF0BrDFC_t-14">
          <mxGeometry relative="1" as="geometry">
            <Array as="points">
              <mxPoint x="150" y="210" />
              <mxPoint x="150" y="510" />
            </Array>
          </mxGeometry>
        </mxCell>
        <mxCell id="k3N5Iyne3RUF0BrDFC_t-8" value="Esp-32" style="rounded=1;whiteSpace=wrap;html=1;labelBackgroundColor=none;fontFamily=Times New Roman;fontSize=19;fontColor=#000000;fillColor=#0000CC;" vertex="1" parent="1">
          <mxGeometry x="190" y="180" width="120" height="60" as="geometry" />
        </mxCell>
        <mxCell id="k3N5Iyne3RUF0BrDFC_t-9" value="DHT11" style="rounded=0;whiteSpace=wrap;html=1;labelBackgroundColor=none;fontFamily=Times New Roman;fontSize=19;fontColor=#000000;fillColor=#295BFF;rotation=90;" vertex="1" parent="1">
          <mxGeometry x="390" y="150" width="110" height="90" as="geometry" />
        </mxCell>
        <mxCell id="k3N5Iyne3RUF0BrDFC_t-14" value="&lt;font color=&quot;#ffffff&quot;&gt;encoder&lt;/font&gt;" style="ellipse;whiteSpace=wrap;html=1;aspect=fixed;labelBackgroundColor=none;fontFamily=Times New Roman;fontSize=25;fillColor=#000000;strokeColor=#d6b656;" vertex="1" parent="1">
          <mxGeometry x="290" y="460" width="80" height="80" as="geometry" />
        </mxCell>
        <mxCell id="k3N5Iyne3RUF0BrDFC_t-24" value="Servo" style="rounded=0;whiteSpace=wrap;html=1;labelBackgroundColor=none;fontFamily=Times New Roman;fontSize=25;fillColor=#3333FF;strokeColor=#6c8ebf;" vertex="1" parent="1">
          <mxGeometry x="570" y="230" width="130" height="90" as="geometry" />
        </mxCell>
        <mxCell id="k3N5Iyne3RUF0BrDFC_t-34" value="water&lt;br&gt;sensor" style="rounded=0;whiteSpace=wrap;html=1;labelBackgroundColor=none;fontFamily=Times New Roman;fontSize=25;fillColor=#FF0000;strokeColor=#b85450;" vertex="1" parent="1">
          <mxGeometry x="60" y="50" width="70" height="120" as="geometry" />
        </mxCell>
      </root>
    </mxGraphModel>
  </diagram>
</mxfile>
